<?xml version="1.0" encoding="UTF-8"?>
<svg xmlns="http://www.w3.org/2000/svg" version="1.1" viewBox="0 0 100 100">
<circle fill="#0000FF" cx="50" cy="50" r="50"/>
<path fill="#0000FF" d="M22.07,53.25c.67-1.51,3.08-2.52,5.21-3.48,2.97-1.29,6-2.24,6.11-3.31.22-1.57-6.84-4.09-5.72-8.18.9-3.42,2.75-6.22,5.05-8.63,1.18-1.23,2.47-2.3,3.81-3.25-1.96.73-6.67,5.61-8.35,8.24h0c-1.57,2.52-3.03,3.31-3.03,4.93,0,1.35,1.23,1.91,3.59,3.42,2.35,1.51,4.54,2.19,4.54,3.59,0,.84-5.61,2.19-8.35,3.31-3.2,1.23-5.1,2.35-5.1,3.76-.06,3.08,4.88,4.82,6.17,7.57,0,.06.06.11.06.11-.06-.17-.11-.34-.17-.5-.95-3.31-4.99-4.93-3.81-7.57Z"/>
<path fill="aqua" d="M39.95,41.87c1.85,1.96,5.21,3.7,3.53,5.89-.95,1.29-4.93,2.91-7.85,4.32-1.57.73-3.03,1.29-3.14,1.96.56-1.18,3.92-2.13,8.02-3.7,3.87-1.46,6.28-1.85,6.17-3.53-.17-2.35-7.18-4.2-7.18-7.74h0c0-1.18.62-2.52,1.07-3.48-.84.95-1.29,1.79-1.51,2.35-.45,1.85,0,3.03.9,3.92Z"/>
<path fill="aqua" d="M36.81,58.46c.45,1.18,1.01,2.19,1.57,3.14-.39-1.35.45-3.53-1.12-4.43-1.23-.67-2.69-1.07-3.7-1.57,1.12.78,2.75,1.51,3.25,2.86Z"/>
<path fill="#FCFCFC" d="M58.23,66.54h0c-2.24,1.23-4.93,1.79-7.96,1.79-1.68,0-3.36-.28-4.93-.9-1.57-.56-3.08-1.51-4.43-2.75-.56-.56-1.57-1.63-2.52-3.14-.56-.9-1.12-1.96-1.57-3.14-.5-1.35-2.13-2.07-3.25-2.86-.62-.45-1.12-.9-1.12-1.51v-.06c.11-.67,1.57-1.23,3.14-1.96,2.91-1.4,6.9-3.03,7.85-4.32,1.63-2.19-1.74-3.92-3.53-5.89-.84-.95-1.35-2.07-.78-3.87.17-.56.67-1.46,1.51-2.35,1.85-2.13,5.38-4.6,10.65-4.6,1.68,0,3.36.34,4.93.95s3.03,1.46,4.2,2.58c1.23,1.12,2.19,2.52,2.97,4.15.62,1.35,1.01,2.86,1.18,4.43h11.32c-.17-.9-.39-1.79-.67-2.69-1.12-3.76-2.75-7.01-4.93-9.75-2.19-2.63-4.88-4.76-8.13-6.33-3.2-1.57-6.84-2.35-10.88-2.35-3.7,0-7.18.67-10.31,2.02-1.57.67-3.03,1.46-4.37,2.41-1.4.95-2.63,2.02-3.81,3.25-2.3,2.41-4.15,5.27-5.05,8.63-1.12,4.15,5.94,6.61,5.77,8.18-.11,1.07-3.14,2.02-6.11,3.31-2.13.95-4.54,2.02-5.21,3.48-1.18,2.63,2.86,4.26,3.81,7.57.06.17.11.34.17.5,1.07,3.2,2.86,6,5.05,8.41,2.3,2.52,5.05,4.54,8.35,6.05,3.31,1.51,7.06,2.24,11.32,2.24,3.42,0,6.45-.5,9.08-1.46,2.69-.95,4.99-2.24,7.01-3.87,1.96-1.63,3.64-3.42,4.93-5.49,1.29-2.07,2.24-4.15,2.86-6.22h-11.6c-1.07,2.47-2.69,4.32-4.93,5.55Z"/>
</svg>